<svg width="18" height="13" viewBox="0 0 18 13" fill="none" xmlns="http://www.w3.org/2000/svg">
<path fill-rule="evenodd" clip-rule="evenodd" d="M12.3357 0.868019C12.403 0.790985 12.4831 0.729867 12.5712 0.688166C12.6593 0.646465 12.7538 0.625 12.8492 0.625C12.9446 0.625 13.0391 0.646465 13.1272 0.688166C13.2153 0.729867 13.2954 0.790985 13.3628 0.868019L17.7149 5.83119C17.7825 5.90803 17.836 5.99931 17.8726 6.09981C17.9092 6.2003 17.928 6.30804 17.928 6.41684C17.928 6.52565 17.9092 6.63338 17.8726 6.73388C17.836 6.83438 17.7825 6.92566 17.7149 7.0025L13.3628 11.9657C13.2266 12.121 13.0418 12.2083 12.8492 12.2083C12.6566 12.2083 12.4719 12.121 12.3357 11.9657C12.1995 11.8103 12.1229 11.5997 12.1229 11.38C12.1229 11.1604 12.1995 10.9497 12.3357 10.7944L16.1757 6.41684L12.3357 2.03933C12.2681 1.96249 12.2145 1.87121 12.1779 1.77071C12.1414 1.67021 12.1226 1.56248 12.1226 1.45367C12.1226 1.34487 12.1414 1.23713 12.1779 1.13664C12.2145 1.03614 12.2681 0.944858 12.3357 0.868019Z" fill="#AE0707"/>
<path fill-rule="evenodd" clip-rule="evenodd" d="M0.52002 6.41777C0.52002 6.19839 0.59644 5.98799 0.732468 5.83286C0.868497 5.67773 1.05299 5.59058 1.24536 5.59058H16.4776C16.67 5.59058 16.8545 5.67773 16.9905 5.83286C17.1265 5.98799 17.203 6.19839 17.203 6.41777C17.203 6.63716 17.1265 6.84756 16.9905 7.00269C16.8545 7.15782 16.67 7.24497 16.4776 7.24497H1.24536C1.05299 7.24497 0.868497 7.15782 0.732468 7.00269C0.59644 6.84756 0.52002 6.63716 0.52002 6.41777Z" fill="#AE0707"/>
</svg>
