<svg width="45" height="45" viewBox="0 0 45 45" fill="none" xmlns="http://www.w3.org/2000/svg">
<path fill-rule="evenodd" clip-rule="evenodd" d="M29.7386 2.02253C25.0533 0.659157 19.9466 0.659157 15.2614 2.02253C14.4752 2.25004 14.0999 3.16288 14.5226 3.88424L16.4424 7.32102C19.7805 5.99276 24.7318 5.79444 28.5571 7.32161L30.4772 3.88424C30.9 3.16288 30.5246 2.25013 29.7386 2.02253ZM22.5 13.8579C13.2064 13.8579 6 24.0923 6 32.8963C6 43.1357 15.4176 44.3194 22.5 44.3194C29.5824 44.3194 39 43.1357 39 32.8963C39 24.0923 31.7936 13.8579 22.5 13.8579ZM16.5924 10.095C19.0523 8.34438 26.0186 8.41418 28.3934 10.0872C29.5008 10.8681 30.0239 12.0538 30.0134 13.2309C27.7326 12.0226 25.2019 11.3192 22.5002 11.3192C20.2822 11.3192 17.4244 11.9398 14.9872 13.2309C14.9763 12.0091 15.5378 10.8395 16.5924 10.095Z" fill="#AE0707"/>
</svg>
