<svg width="45" height="45" viewBox="0 0 45 45" fill="none" xmlns="http://www.w3.org/2000/svg">
<path d="M34.3918 20.4783C32.9293 18.6791 31.2575 17.2457 29.4223 16.2149C29.7229 15.8593 29.9601 15.4423 30.1132 14.9776C30.7142 13.1476 29.8364 10.9737 27.5958 10.2656L30.7367 4.78873C31.133 4.09754 30.777 3.21718 30.0129 2.99504C27.7419 2.33477 25.3812 2 22.9961 2C20.611 2 18.2503 2.33477 15.9793 2.99504C15.2143 3.21743 14.8597 4.09836 15.2555 4.78873L18.3964 10.2656C16.1647 10.9702 15.2758 13.1408 15.8793 14.9786C16.032 15.4421 16.269 15.8588 16.5705 16.2145C14.7351 17.2453 13.0631 18.6789 11.6005 20.4783C8.6768 24.0751 7 28.612 7 32.9258C7 41.8747 14.1406 44 22.9961 44C31.8578 44 38.9922 41.871 38.9922 32.9258C38.9922 28.612 37.3154 24.0751 34.3918 20.4783ZM18.1969 4.97101C19.7668 4.63214 21.375 4.46094 22.9961 4.46094C24.6172 4.46094 26.2254 4.63214 27.7952 4.97101L25.0855 9.69617C23.6976 9.50241 22.295 9.5025 20.9068 9.69625L18.1969 4.97101ZM19.0008 12.6555C21.1185 11.9609 23.334 11.8292 25.4879 12.2598C25.4904 12.2603 25.493 12.2608 25.4956 12.2613C25.9976 12.362 26.4963 12.4931 26.9896 12.655C27.6345 12.8675 27.9869 13.565 27.7755 14.2087C27.6218 14.6749 27.2162 14.996 26.739 15.048C25.5122 14.6638 24.2608 14.4688 22.9961 14.4688C21.734 14.4688 20.485 14.663 19.2606 15.0456C18.776 14.9957 18.3694 14.6724 18.217 14.2099C18.0053 13.565 18.3577 12.8674 19.0008 12.6555ZM22.9961 41.5555C13.3824 41.5555 9.46094 39.0437 9.46094 32.9258C9.46094 29.2227 10.9747 25.1498 13.51 22.0306C16.1838 18.7412 19.5527 16.9297 22.9961 16.9297C26.7864 16.9297 30.1017 19.102 32.4822 22.0306C35.0175 25.1498 36.5312 29.2227 36.5312 32.9258C36.5312 39.0437 32.6098 41.5555 22.9961 41.5555Z" fill="#032352"/>
<path d="M34.3918 20.4783C32.9293 18.6791 31.2575 17.2457 29.4223 16.2149C29.7229 15.8593 29.9601 15.4423 30.1132 14.9776C30.7142 13.1476 29.8364 10.9737 27.5958 10.2656L30.7367 4.78873C31.133 4.09754 30.777 3.21718 30.0129 2.99504C27.7419 2.33477 25.3812 2 22.9961 2C20.611 2 18.2503 2.33477 15.9793 2.99504C15.2143 3.21743 14.8597 4.09836 15.2555 4.78873L18.3964 10.2656C16.1647 10.9702 15.2758 13.1408 15.8793 14.9786C16.032 15.4421 16.269 15.8588 16.5705 16.2145C14.7351 17.2453 13.0631 18.6789 11.6005 20.4783C8.6768 24.0751 7 28.612 7 32.9258C7 41.8747 14.1406 44 22.9961 44C31.8578 44 38.9922 41.871 38.9922 32.9258C38.9922 28.612 37.3154 24.0751 34.3918 20.4783ZM18.1969 4.97101C19.7668 4.63214 21.375 4.46094 22.9961 4.46094C24.6172 4.46094 26.2254 4.63214 27.7952 4.97101L25.0855 9.69617C23.6976 9.50241 22.295 9.5025 20.9068 9.69625L18.1969 4.97101ZM19.0008 12.6555C21.1185 11.9609 23.334 11.8292 25.4879 12.2598C25.4904 12.2603 25.493 12.2608 25.4956 12.2613C25.9976 12.362 26.4963 12.4931 26.9896 12.655C27.6345 12.8675 27.9869 13.565 27.7755 14.2087C27.6218 14.6749 27.2162 14.996 26.739 15.048C25.5122 14.6638 24.2608 14.4688 22.9961 14.4688C21.734 14.4688 20.485 14.663 19.2606 15.0456C18.776 14.9957 18.3694 14.6724 18.217 14.2099C18.0053 13.565 18.3577 12.8674 19.0008 12.6555ZM22.9961 41.5555C13.3824 41.5555 9.46094 39.0437 9.46094 32.9258C9.46094 29.2227 10.9747 25.1498 13.51 22.0306C16.1838 18.7412 19.5527 16.9297 22.9961 16.9297C26.7864 16.9297 30.1017 19.102 32.4822 22.0306C35.0175 25.1498 36.5312 29.2227 36.5312 32.9258C36.5312 39.0437 32.6098 41.5555 22.9961 41.5555Z" fill="#032352"/>
</svg>
