<svg width="69" height="69" viewBox="0 0 69 69" fill="none" xmlns="http://www.w3.org/2000/svg">
<path fill-rule="evenodd" clip-rule="evenodd" d="M34.5 66C51.897 66 66 51.897 66 34.5C66 17.103 51.897 3 34.5 3C17.103 3 3 17.103 3 34.5C3 51.897 17.103 66 34.5 66ZM40.4818 38.4983C40.4818 39.4556 40.2557 40.3598 39.8558 41.1621L41.9658 43.2725C42.7095 44.0163 42.7094 45.222 41.9657 45.9655C41.2218 46.7092 40.0163 46.709 39.2726 45.9653L37.1625 43.8549C36.3605 44.2543 35.4569 44.4802 34.5001 44.4802C31.1964 44.4802 28.5182 41.802 28.5182 38.4983C28.5182 37.5417 28.7439 36.6382 29.1431 35.8363L20.1728 26.8656C19.4291 26.1218 19.4291 24.9161 20.1728 24.1725C20.9165 23.4288 22.1223 23.4288 22.8658 24.1725L31.8356 33.1426C32.638 32.7426 33.5423 32.5164 34.4999 32.5164C37.8036 32.5164 40.4818 35.1946 40.4818 38.4983ZM28.3809 52.9136C27.3292 52.9136 26.4766 53.7662 26.4766 54.8179C26.4766 55.8695 27.3292 56.7222 28.3809 56.7222H40.6191C41.6708 56.7222 42.5234 55.8695 42.5234 54.8179C42.5234 53.7662 41.6708 52.9136 40.6191 52.9136H28.3809ZM5 34.5C5 18.2336 18.2336 5 34.5 5C50.7664 5 64 18.2336 64 34.5C64 39.6845 62.6331 44.7855 60.0469 49.2517C59.5691 50.0769 58.5135 50.359 57.6876 49.8828L52.8764 47.1054C52.0497 46.6282 51.7665 45.571 52.2438 44.7442C52.7211 43.9175 53.778 43.6339 54.6049 44.1116L57.8698 45.9965C59.3694 42.9519 60.2573 39.628 60.4833 36.2284H56.7172C55.7626 36.2284 54.9887 35.4545 54.9887 34.4999C54.9887 33.5453 55.7626 32.7714 56.7172 32.7714H60.4843C60.2548 29.286 59.3368 25.986 57.8649 23.0061L54.6049 24.8882C53.778 25.3658 52.721 25.0822 52.2438 24.2556C51.7665 23.4287 52.0497 22.3717 52.8764 21.8944L56.1323 20.0147C54.2373 17.1939 51.8059 14.7625 48.9852 12.8676L47.1055 16.1232C46.6282 16.95 45.571 17.2335 44.7443 16.7559C43.9176 16.2786 43.6344 15.2214 44.1117 14.3947L45.9937 11.1351C43.0137 9.6633 39.7137 8.74592 36.2285 8.51603V12.2829C36.2285 13.2375 35.4546 14.0114 34.5 14.0114C33.5454 14.0114 32.7715 13.2375 32.7715 12.2829V8.51603C29.2863 8.74592 25.9863 9.66319 23.0063 11.1351L24.8883 14.3947C25.3656 15.2214 25.0824 16.2785 24.2557 16.7559C23.429 17.2335 22.3718 16.95 21.8945 16.1232L20.0148 12.8676C17.1941 14.7627 14.7628 17.194 12.8677 20.0147L16.1237 21.8946C16.9504 22.3718 17.2336 23.429 16.7563 24.2558C16.2793 25.0825 15.2221 25.3661 14.3952 24.8884L11.1352 23.0063C9.66319 25.9863 8.74535 29.2862 8.5158 32.7716H12.2828C13.2374 32.7716 14.0113 33.5455 14.0113 34.5001C14.0113 35.4547 13.2374 36.2286 12.2828 36.2286H8.51672C8.7427 39.6283 9.63058 42.9521 11.1302 45.9967L14.3951 44.1118C15.222 43.6342 16.2789 43.9178 16.7562 44.7445C17.2335 45.5713 16.9503 46.6283 16.1236 47.1056L11.3124 49.883C10.4867 50.3592 9.43088 50.077 8.95312 49.252C6.36691 44.7855 5 39.6844 5 34.5Z" fill="#AE0707"/>
</svg>
