<svg width="45" height="45" viewBox="0 0 45 45" fill="none" xmlns="http://www.w3.org/2000/svg">
<path fill-rule="evenodd" clip-rule="evenodd" d="M0 25.9395C0 13.5329 10.0934 3.43945 22.5 3.43945C34.9066 3.43945 45 13.5329 45 25.9395C45 29.8937 43.9574 33.7843 41.9849 37.1908C41.6205 37.8202 40.8154 38.0353 40.1854 37.6721L36.5159 35.5537C35.8854 35.1898 35.6694 34.3835 36.0334 33.7528C36.3974 33.1223 37.2036 32.906 37.8343 33.2703L40.3244 34.7079C41.4682 32.3858 42.1454 29.8507 42.3178 27.2577H39.4453C38.7172 27.2577 38.127 26.6674 38.127 25.9394C38.127 25.2113 38.7172 24.621 39.4453 24.621H42.3185C42.1435 21.9627 41.4433 19.4457 40.3207 17.1729L37.8343 18.6084C37.2036 18.9727 36.3974 18.7564 36.0334 18.1259C35.6694 17.4953 35.8854 16.6891 36.5159 16.325L38.9992 14.8913C37.5539 12.7399 35.6994 10.8855 33.548 9.44019L32.1144 11.9233C31.7503 12.5539 30.944 12.7701 30.3135 12.4058C29.6829 12.0417 29.4669 11.2354 29.831 10.6049L31.2664 8.11875C28.9935 6.99621 26.4765 6.29651 23.8184 6.12117V8.99423C23.8184 9.72231 23.2281 10.3126 22.5 10.3126C21.7719 10.3126 21.1816 9.72231 21.1816 8.99423V6.12117C18.5235 6.29651 16.0065 6.99612 13.7336 8.11875L15.169 10.6049C15.5331 11.2354 15.3171 12.0417 14.6865 12.4058C14.056 12.7701 13.2497 12.5539 12.8856 11.9233L11.452 9.44019C9.30059 10.8855 7.44618 12.74 6.00082 14.8913L8.48417 16.3252C9.1147 16.6891 9.33073 17.4954 8.96669 18.1261C8.60282 18.7566 7.79651 18.9729 7.16581 18.6086L4.67938 17.1731C3.55667 19.4459 2.85662 21.9628 2.68154 24.6212H5.55469C6.28277 24.6212 6.87305 25.2115 6.87305 25.9395C6.87305 26.6676 6.28277 27.2579 5.55469 27.2579H2.68225C2.8546 29.8508 3.5318 32.386 4.67561 34.7081L7.16572 33.2705C7.79643 32.9062 8.60256 33.1225 8.9666 33.753C9.33064 34.3836 9.11461 35.1898 8.48408 35.5539L4.81456 37.6722C4.18474 38.0355 3.37948 37.8202 3.01509 37.1909C1.04256 33.7843 0 29.8937 0 25.9395ZM26.2078 27.7827C26.4847 27.2273 26.6412 26.6013 26.6412 25.9385C26.6412 23.6513 24.7871 21.7972 22.4999 21.7972C21.837 21.7972 21.2109 21.9538 20.6554 22.2308L14.4455 16.0207C13.9308 15.5058 13.096 15.5058 12.5811 16.0207C12.0662 16.5354 12.0662 17.3701 12.5811 17.8851L18.7914 24.0956C18.515 24.6507 18.3587 25.2763 18.3587 25.9385C18.3587 28.2257 20.2128 30.0798 22.5 30.0798C23.1624 30.0798 23.788 29.9235 24.3432 29.647L25.8041 31.108C26.3189 31.6228 27.1535 31.623 27.6685 31.1082C28.1834 30.5934 28.1835 29.7587 27.6686 29.2437L26.2078 27.7827ZM26.7366 35.9179H18.264C17.5359 35.9179 16.9456 36.5081 16.9456 37.2362C16.9456 37.9643 17.5359 38.5546 18.264 38.5546H26.7366C27.4647 38.5546 28.055 37.9643 28.055 37.2362C28.055 36.5081 27.4647 35.9179 26.7366 35.9179Z" fill="#032352"/>
</svg>
