<svg width="32" height="32" viewBox="0 0 32 32" fill="none" xmlns="http://www.w3.org/2000/svg">
<g clip-path="url(#clip0)">
<path d="M17.7177 15.9894C17.7177 20.5397 14.054 24.2285 9.53478 24.2285C5.01558 24.2285 1.35156 20.5397 1.35156 15.9894C1.35156 11.439 5.0153 7.75 9.53478 7.75C14.0543 7.75 17.7177 11.439 17.7177 15.9894Z" fill="#102A51"/>
<path d="M26.6949 16.0067C26.6949 20.2899 24.8631 23.7635 22.6033 23.7635C20.3436 23.7635 18.5117 20.2899 18.5117 16.0067C18.5117 11.7236 20.3433 8.25 22.603 8.25C24.8628 8.25 26.6947 11.7225 26.6947 16.0067" fill="#102A51"/>
<path d="M30.3661 16.0113C30.3661 19.848 29.7219 22.9601 28.927 22.9601C28.1322 22.9601 27.4883 19.8488 27.4883 16.0113C27.4883 12.1738 28.1325 9.0625 28.927 9.0625C29.7216 9.0625 30.3661 12.1735 30.3661 16.0113Z" fill="#102A51"/>
</g>
<defs>
<clipPath id="clip0">
<rect width="32" height="32" fill="white"/>
</clipPath>
</defs>
</svg>
