<svg width="45" height="45" viewBox="0 0 45 45" fill="none" xmlns="http://www.w3.org/2000/svg">
<path d="M40.2721 37.4142C41.7763 37.4142 43 36.1905 43 34.6863V6.90625C43 4.75234 41.2477 3 39.0938 3H6.90625C4.75234 3 3 4.75234 3 6.90625V34.6863C3 36.1905 4.22375 37.4142 5.72789 37.4142H6.59375V41.4375H3.78125C3.34977 41.4375 3 41.7873 3 42.2188C3 42.6502 3.34977 43 3.78125 43H42.2188C42.6502 43 43 42.6502 43 42.2188C43 41.7873 42.6502 41.4375 42.2188 41.4375H39.4062V37.4142H40.2721ZM4.5625 6.90625C4.5625 5.61391 5.61391 4.5625 6.90625 4.5625H39.0938C40.3861 4.5625 41.4375 5.61391 41.4375 6.90625V8.625H4.64094C4.61445 8.625 4.58828 8.62641 4.5625 8.62898V6.90625ZM11.5938 41.4375H8.15625V34.4062H11.5938V41.4375ZM20.3438 41.4375H16.9062V25.7681H20.3438V41.4375ZM29.0938 41.4375H25.6562V32.375H29.0938V41.4375ZM38.625 23.0391H33.625C33.1935 23.0391 32.8438 23.3889 32.8438 23.8203V27.7655C32.8438 28.197 33.1935 28.5468 33.625 28.5468C34.0565 28.5468 34.4062 28.197 34.4062 27.7655V24.6016H37.8438V41.4375H34.4062V33.0195C34.4062 32.5881 34.0565 32.2383 33.625 32.2383C33.1935 32.2383 32.8438 32.5881 32.8438 33.0195V41.4375H30.6562V31.5938C30.6562 31.1623 30.3065 30.8125 29.875 30.8125H24.875C24.4435 30.8125 24.0938 31.1623 24.0938 31.5938V41.4375H21.9062V24.9869C21.9062 24.5555 21.5565 24.2056 21.125 24.2056H16.125C15.6935 24.2056 15.3438 24.5555 15.3438 24.9869V41.4375H13.1562V33.625C13.1562 33.1936 12.8065 32.8438 12.375 32.8438H7.375C6.94352 32.8438 6.59375 33.1936 6.59375 33.625V35.8517H5.72789C5.08523 35.8517 4.5625 35.3289 4.5625 34.6863V10.1835C4.58828 10.1861 4.61445 10.1875 4.64094 10.1875H41.4375V34.6863C41.4375 35.3289 40.9147 35.8517 40.2721 35.8517H39.4062V23.8203C39.4062 23.3889 39.0565 23.0391 38.625 23.0391Z" fill="#032352"/>
<path d="M38 5.8125H20.3489C19.9174 5.8125 19.5676 6.16234 19.5676 6.59375C19.5676 7.02516 19.9174 7.375 20.3489 7.375H38C38.4315 7.375 38.7813 7.02516 38.7813 6.59375C38.7813 6.16234 38.4315 5.8125 38 5.8125Z" fill="#032352"/>
<path d="M11.6773 6.04141C11.532 5.89609 11.3305 5.8125 11.125 5.8125C10.9195 5.8125 10.718 5.89602 10.5727 6.04141C10.4273 6.18672 10.3438 6.38828 10.3438 6.59375C10.3438 6.79922 10.4273 7.00078 10.5727 7.14602C10.718 7.29141 10.9195 7.375 11.125 7.375C11.3305 7.375 11.532 7.29141 11.6773 7.14602C11.8227 7.00078 11.9062 6.79922 11.9062 6.59375C11.9062 6.38828 11.8227 6.18672 11.6773 6.04141Z" fill="#032352"/>
<path d="M8.55234 6.04141C8.40703 5.89609 8.20547 5.8125 8 5.8125C7.79453 5.8125 7.59297 5.89602 7.44766 6.04141C7.30234 6.18672 7.21875 6.38828 7.21875 6.59375C7.21875 6.79922 7.30234 7.00078 7.44766 7.14602C7.59297 7.29141 7.79453 7.375 8 7.375C8.20547 7.375 8.40703 7.29141 8.55234 7.14602C8.69766 7.00078 8.78125 6.79922 8.78125 6.59375C8.78125 6.38828 8.69766 6.18672 8.55234 6.04141Z" fill="#032352"/>
<path d="M14.8023 6.04141C14.657 5.89609 14.4563 5.8125 14.25 5.8125C14.0445 5.8125 13.843 5.89602 13.6977 6.04141C13.5523 6.18672 13.4688 6.38828 13.4688 6.59375C13.4688 6.79922 13.5523 7.00078 13.6977 7.14602C13.843 7.29141 14.0445 7.375 14.25 7.375C14.4555 7.375 14.657 7.29141 14.8023 7.14602C14.9477 7.00078 15.0312 6.79922 15.0312 6.59375C15.0312 6.38828 14.9477 6.18672 14.8023 6.04141Z" fill="#032352"/>
<path d="M34.1773 29.9979C34.032 29.8519 33.8305 29.769 33.625 29.769C33.4195 29.769 33.218 29.8519 33.0727 29.9979C32.9273 30.1433 32.8438 30.3448 32.8438 30.5503C32.8438 30.7558 32.9273 30.9573 33.0727 31.1026C33.218 31.2479 33.4195 31.3315 33.625 31.3315C33.8305 31.3315 34.032 31.2479 34.1773 31.1026C34.3227 30.9573 34.4062 30.7558 34.4062 30.5503C34.4062 30.344 34.3227 30.1433 34.1773 29.9979Z" fill="#032352"/>
<path d="M36.1249 13.6201C34.574 13.6201 33.3124 14.8818 33.3124 16.4326C33.3124 17.0486 33.512 17.6186 33.8492 18.0825L28.6597 23.2719C28.257 23.049 27.7943 22.9217 27.3023 22.9217C26.8589 22.9217 26.4394 23.0252 26.066 23.2087L20.6474 17.79C20.8703 17.3873 20.9976 16.9246 20.9976 16.4326C20.9976 14.8818 19.736 13.6201 18.1851 13.6201C16.6342 13.6201 15.3726 14.8818 15.3726 16.4326C15.3726 16.9746 15.5271 17.4811 15.7939 17.9109L11.1803 22.5243C10.7776 22.3014 10.315 22.1741 9.823 22.1741C8.27214 22.1741 7.0105 23.4357 7.0105 24.9866C7.0105 26.5375 8.27214 27.7991 9.823 27.7991C11.3739 27.7991 12.6355 26.5375 12.6355 24.9866C12.6355 24.4946 12.5082 24.0319 12.2853 23.6292L16.9539 18.9606C17.326 19.1425 17.7438 19.245 18.1851 19.245C18.6771 19.245 19.1397 19.1177 19.5425 18.8948L24.9081 24.2604C24.6432 24.6893 24.4898 25.1939 24.4898 25.734C24.4898 27.2849 25.7514 28.5465 27.3023 28.5465C28.8532 28.5465 30.1148 27.2849 30.1148 25.734C30.1148 25.242 29.9875 24.7793 29.7646 24.3766L35.0931 19.0481C35.4128 19.1748 35.7607 19.2451 36.1249 19.2451C37.6757 19.2451 38.9374 17.9835 38.9374 16.4326C38.9374 14.8818 37.6757 13.6201 36.1249 13.6201ZM9.82308 26.2368C9.13386 26.2368 8.57308 25.676 8.57308 24.9868C8.57308 24.2975 9.13386 23.7368 9.82308 23.7368C10.5123 23.7368 11.0731 24.2975 11.0731 24.9868C11.0731 25.676 10.5123 26.2368 9.82308 26.2368ZM18.1852 17.6826C17.496 17.6826 16.9352 17.1218 16.9352 16.4326C16.9352 15.7434 17.496 15.1826 18.1852 15.1826C18.8744 15.1826 19.4352 15.7434 19.4352 16.4326C19.4352 17.1218 18.8744 17.6826 18.1852 17.6826ZM27.3024 26.9842C26.6132 26.9842 26.0524 26.4234 26.0524 25.7342C26.0524 25.045 26.6132 24.4842 27.3024 24.4842C27.9916 24.4842 28.5524 25.045 28.5524 25.7342C28.5524 26.4234 27.9916 26.9842 27.3024 26.9842ZM36.1249 17.6826C35.4357 17.6826 34.8749 17.1218 34.8749 16.4326C34.8749 15.7434 35.4357 15.1826 36.1249 15.1826C36.8141 15.1826 37.3749 15.7434 37.3749 16.4326C37.3749 17.1218 36.8141 17.6826 36.1249 17.6826Z" fill="#032352"/>
<path d="M14.5882 13.0742C14.4421 12.9289 14.2414 12.8452 14.0359 12.8452C13.8296 12.8452 13.6281 12.9288 13.4828 13.0742C13.3375 13.2194 13.2546 13.421 13.2546 13.6265C13.2546 13.8319 13.3375 14.0335 13.4828 14.1788C13.6289 14.3241 13.8296 14.4077 14.0359 14.4077C14.2414 14.4077 14.4421 14.3242 14.5882 14.1788C14.7335 14.0335 14.8171 13.8319 14.8171 13.6265C14.8171 13.421 14.7335 13.2194 14.5882 13.0742Z" fill="#032352"/>
<path d="M11.125 12.8452H7.375C6.94352 12.8452 6.59375 13.1951 6.59375 13.6265C6.59375 14.0579 6.94352 14.4077 7.375 14.4077H11.125C11.5565 14.4077 11.9062 14.0579 11.9062 13.6265C11.9062 13.1951 11.5565 12.8452 11.125 12.8452Z" fill="#032352"/>
<path d="M11.125 16.5952H7.375C6.94352 16.5952 6.59375 16.9451 6.59375 17.3765C6.59375 17.8079 6.94352 18.1577 7.375 18.1577H11.125C11.5565 18.1577 11.9062 17.8079 11.9062 17.3765C11.9062 16.9451 11.5565 16.5952 11.125 16.5952Z" fill="#032352"/>
</svg>
