<svg width="32" height="42" viewBox="0 0 32 42" fill="none" xmlns="http://www.w3.org/2000/svg">
<path d="M27.3918 18.4783C25.9293 16.6791 24.2575 15.2457 22.4223 14.2149C22.7229 13.8593 22.9601 13.4423 23.1132 12.9776C23.7142 11.1476 22.8364 8.97373 20.5958 8.26555L23.7367 2.78873C24.133 2.09754 23.777 1.21718 23.0129 0.995039C20.7419 0.33477 18.3812 0 15.9961 0C13.611 0 11.2503 0.33477 8.97931 0.995039C8.21428 1.21743 7.85966 2.09836 8.25546 2.78873L11.3964 8.26563C9.1647 8.9702 8.2758 11.1408 8.87931 12.9786C9.03197 13.4421 9.26904 13.8588 9.5705 14.2145C7.73505 15.2453 6.06309 16.6789 4.60048 18.4783C1.6768 22.0751 0 26.612 0 30.9258C0 39.8747 7.14057 42 15.9961 42C24.8578 42 31.9922 39.871 31.9922 30.9258C31.9922 26.612 30.3154 22.0751 27.3918 18.4783ZM11.1969 2.97101C12.7668 2.63214 14.375 2.46094 15.9961 2.46094C17.6172 2.46094 19.2254 2.63214 20.7952 2.97101L18.0855 7.69617C16.6976 7.50241 15.295 7.5025 13.9068 7.69625L11.1969 2.97101ZM12.0008 10.6555C14.1185 9.96089 16.334 9.82923 18.4879 10.2598C18.4904 10.2603 18.493 10.2608 18.4956 10.2613C18.9976 10.362 19.4963 10.4931 19.9896 10.655C20.6345 10.8675 20.9869 11.565 20.7755 12.2087C20.6218 12.6749 20.2162 12.996 19.739 13.048C18.5122 12.6638 17.2608 12.4688 15.9961 12.4688C14.734 12.4688 13.485 12.663 12.2606 13.0456C11.776 12.9957 11.3694 12.6724 11.217 12.2099C11.0053 11.565 11.3577 10.8674 12.0008 10.6555ZM15.9961 39.5555C6.38236 39.5555 2.46094 37.0437 2.46094 30.9258C2.46094 27.2227 3.97466 23.1498 6.51 20.0306C9.18381 16.7412 12.5527 14.9297 15.9961 14.9297C19.7864 14.9297 23.1017 17.102 25.4822 20.0306C28.0175 23.1498 29.5312 27.2227 29.5312 30.9258C29.5312 37.0437 25.6098 39.5555 15.9961 39.5555Z" fill="#032352"/>
</svg>
